#!OML:ASF H:\LiuWeirdWalks\Patient Classification 1\Patient 1\Session 1\male.ASF
:FULLY-SPECIFIED
:DEGREES
323
root 0.761812 16.5754 -3.22635 2.3223 5.46724 -5.77162
lowerback 11.5456 0.978107 4.43193
upperback 0.537823 1.9686 1.41013
thorax -5.81819 0.867122 -1.33642
lowerneck -20.0599 -1.37215 1.37723
upperneck 5.8581 -2.04282 -1.10144
head 4.93178 -1.04361 -0.766711
rclavicle 6.74625e-015 -6.06293e-015
rhumerus -31.296 -1.80598 -81.0513
rradius 33.2064
rwrist -13.1614
rhand -20.2732 0.990614
rfingers 7.12502
rthumb 6.07604 -28.9023
lclavicle 6.74625e-015 -6.06293e-015
lhumerus -40.5978 3.11165 78.7674
lradius 51.3794
lwrist 5.03777
lhand -18.5259 -0.50187
lfingers 7.12502
lthumb 7.76277 29.3356
rfemur 11.8719 -1.65566 24.8111
rtibia 45.9291
rfoot 4.13009 -25.0207
rtoes -15.8466
lfemur -45.4293 1.65155 -11.6181
ltibia 49.476
lfoot -3.53432 -1.57049
ltoes -10.316
324
root 0.811523 16.6511 -2.99495 2.29066 5.20923 -5.07612
lowerback 11.3979 0.988588 3.72672
upperback 0.392662 1.88153 1.30912
thorax -5.91175 0.838713 -1.03093
lowerneck -19.937 -1.20239 1.52085
upperneck 6.46245 -1.83941 -1.21248
head 5.10505 -0.946703 -0.80833
rclavicle 1.65302e-014 -1.64494e-014
rhumerus -31.9303 -1.44004 -81.2033
rradius 31.4881
rwrist -11.9081
rhand -19.4812 0.696855
rfingers 7.12502
rthumb 6.84064 -29.1726
lclavicle 1.65302e-014 -1.64494e-014
lhumerus -39.7633 3.00964 79.1227
lradius 49.4334
lwrist 3.24766
lhand -16.7713 -1.91934
lfingers 7.12502
lthumb 9.45599 27.8485
rfemur 10.2584 -1.4422 23.7083
rtibia 48.7859
rfoot 6.59261 -23.5293
rtoes -13.7148
lfemur -44.1387 1.48853 -12.4428
ltibia 49.2532
lfoot -4.16916 -0.881981
ltoes -10.4463
325
root 0.857552 16.7268 -2.76972 2.27168 4.97329 -4.28977
lowerback 11.2567 0.971794 2.88042
upperback 0.249013 1.74105 1.20358
thorax -6.01104 0.78933 -0.642191
lowerneck -19.844 -0.997129 1.68905
upperneck 7.10853 -1.59875 -1.28299
head 5.29774 -0.827563 -0.837579
rclavicle -1.03896e-014 -1.17034e-014
rhumerus -32.4493 -1.22917 -81.2744
rradius 29.7305
rwrist -10.0208
rhand -18.409 0.437656
rfingers 7.12502
rthumb 7.87558 -29.3956
lclavicle -1.03896e-014 -1.17034e-014
lhumerus -39.0818 2.98399 79.4348
lradius 47.7518
lwrist 1.64173
lhand -15.036 -3.27312
lfingers 7.12502
lthumb 11.13 26.4117
rfemur 8.5441 -1.26788 22.5269
rtibia 51.6955
rfoot 8.38109 -22.3035
rtoes -10.9988
lfemur -42.8388 1.17568 -13.3309
ltibia 48.9461
lfoot -4.73671 -0.0775214
ltoes -10.5984
326
root 0.900281 16.8023 -2.55034 2.24948 4.7672 -3.4581
lowerback 11.1266 0.928186 1.95765
upperback 0.123044 1.55645 1.10174
thorax -6.09729 0.722477 -0.199094
lowerneck -19.8049 -0.781174 1.83318
upperneck 7.79322 -1.3462 -1.28383
head 5.51299 -0.697517 -0.839718
rclavicle 9.80179e-015 8.46698e-015
rhumerus -32.8795 -1.25038 -81.2192
rradius 28.0154
rwrist -7.61443
rhand -17.1189 0.289977
rfingers 7.12502
rthumb 9.12061 -29.4928
lclavicle 9.80179e-015 8.46698e-015
lhumerus -38.5313 2.95954 79.7391
lradius 46.3706
lwrist 0.367408
lhand -13.4002 -4.42734
lfingers 7.12502
lthumb 12.7074 25.166
rfemur 6.8027 -1.15923 21.3095
rtibia 54.5495
rfoot 9.46107 -21.545
rtoes -8.25379
lfemur -41.5055 0.735934 -14.2491
ltibia 48.5117
lfoot -5.19224 0.809598
ltoes -10.7464
327
root 0.939718 16.8776 -2.33684 2.20201 4.59084 -2.64683
lowerback 11.0291 0.855181 1.03357
upperback 0.0282306 1.33498 1.01679
thorax -6.16454 0.639541 0.268544
lowerneck -19.7282 -0.533342 2.03832
upperneck 8.35893 -1.06067 -1.32453
head 5.68524 -0.552652 -0.859293
rclavicle 1.06008e-014 1.07095e-014
rhumerus -33.2332 -1.55802 -81.0029
rradius 26.3883
rwrist -4.76078
rhand -15.6909 0.349362
rfingers 7.12502
rthumb 10.4983 -29.3685
lclavicle 1.06008e-014 1.07095e-014
lhumerus -38.0762 2.87658 80.0605
lradius 45.2932
lwrist -0.462403
lhand -11.9525 -5.28268
lfingers 7.12502
lthumb 14.1028 24.2187
rfemur 5.06618 -1.1242 20.1283
rtibia 57.3068
rfoot 9.91764 -21.308
rtoes -5.74073
lfemur -40.1303 0.210364 -15.1382
ltibia 47.9729
lfoot -5.54784 1.7352
ltoes -10.9142
328
root 0.976377 16.9527 -2.12838 2.11841 4.43326 -1.89738
lowerback 10.9699 0.759679 0.159525
upperback -0.0318896 1.09234 0.955972
thorax -6.20998 0.546212 0.736884
lowerneck -19.6738 -0.26873 2.26588
upperneck 8.82156 -0.755026 -1.38951
head 5.82924 -0.399387 -0.887145
rclavicle -3.27995e-015 -3.57812e-015
rhumerus -33.5438 -2.16886 -80.6045
rradius 24.8915
rwrist -1.61476
rhand -14.2169 0.608817
rfingers 7.12502
rthumb 11.92 -29.0318
lclavicle -3.27995e-015 -3.57812e-015
lhumerus -37.6919 2.68726 80.416
lradius 44.4926
lwrist -0.814918
lhand -10.724 -5.76034
lfingers 7.12502
lthumb 15.2864 23.6548
rfemur 3.35154 -1.15631 19.0218
rtibia 59.9245
rfoot 9.72779 -21.5163
rtoes -4.03931
lfemur -38.7079 -0.371959 -15.9572
ltibia 47.3461
lfoot -5.80766 2.67184
ltoes -11.0857
329
root 1.01023 17.0281 -1.92531 1.9976 4.28985 -1.26549
lowerback 10.9685 0.650935 -0.599362
upperback -0.0671934 0.849256 0.930554
thorax -6.25421 0.450295 1.17753
lowerneck -19.6142 -0.00764365 2.5015
upperneck 9.18805 -0.453017 -1.47208
head 5.94254 -0.24926 -0.92135
rclavicle 8.56016e-015 1.50082e-014
rhumerus -33.8415 -3.07189 -80.0209
rradius 23.5593
rwrist 1.6177
rhand -12.8281 0.930263
rfingers 7.12502
rthumb 13.2589 -28.628
lclavicle 8.56016e-015 1.50082e-014
lhumerus -37.3524 2.34247 80.8204
lradius 43.915
lwrist -0.711735
lhand -9.70361 -5.8993
lfingers 7.12502
lthumb 16.269 23.4382
rfemur 1.64893 -1.25035 18.0535
rtibia 62.3668
rfoot 9.00098 -21.9936
rtoes -3.53168
lfemur -37.2511 -0.968871 -16.65
ltibia 46.6487
lfoot -5.98751 3.58454
ltoes -11.1953
330
root 1.04233 17.1041 -1.7263 1.8519 4.13915 -0.746646
lowerback 10.9891 0.537139 -1.24266
upperback -0.0717112 0.615899 0.939806
thorax -6.27187 0.356225 1.58829
lowerneck -19.575 0.263094 2.76917
upperneck 9.43565 -0.140388 -1.59802
head 6.02217 -0.0969122 -0.972736
rclavicle 2.48481e-015 -1.63003e-014
rhumerus -34.1274 -4.19561 -79.2803
rradius 22.3945
rwrist 4.71237
rhand -11.6038 1.19279
rfingers 7.12502
rthumb 14.4388 -28.2849
lclavicle 2.48481e-015 -1.63003e-014
lhumerus -37.0194 1.84463 81.2765
lradius 43.5116
lwrist -0.193228
lhand -8.9253 -5.79035
lfingers 7.12502
lthumb 17.0183 23.4842
rfemur -0.0523658 -1.38317 17.2095
rtibia 64.6064
rfoot 8.03477 -22.5025
rtoes -3.55024
lfemur -35.769 -1.53859 -17.2323
ltibia 45.8961
lfoot -6.10717 4.46058
ltoes -11.2228
331
root 1.07283 17.1806 -1.53156 1.69981 3.96924 -0.373598
lowerback 11.0083 0.428248 -1.73328
upperback -0.0465458 0.411105 0.991226
thorax -6.25275 0.271569 1.95293
lowerneck -19.5525 0.519734 3.02271
upperneck 9.60923 0.156498 -1.7212
head 6.08155 0.047156 -1.02215
rclavicle -7.69048e-015 -6.55989e-015
rhumerus -34.3944 -5.4788 -78.413
rradius 21.3786
rwrist 7.48932
rhand -10.6168 1.305
rfingers 7.12502
rthumb 15.3896 -28.1022
lclavicle -7.69048e-015 -6.55989e-015
lhumerus -36.6593 1.20017 81.782
lradius 43.2374
lwrist 0.620136
lhand -8.36516 -5.49961
lfingers 7.12502
lthumb 17.5575 23.7276
rfemur -1.78258 -1.52652 16.5382
rtibia 66.6312
rfoot 7.1428 -22.8843
rtoes -3.31511
lfemur -34.2969 -2.04773 -17.6705
ltibia 45.1076
lfoot -6.17898 5.29034
ltoes -11.1524
332
root 1.10259 17.2576 -1.3408 1.55592 3.76763 -0.133927
lowerback 11.0169 0.330134 -2.07551
upperback -0.00525723 0.242163 1.07867
thorax -6.20815 0.199782 2.26592
lowerneck -19.5606 0.762583 3.26281
upperneck 9.72386 0.435871 -1.83313
head 6.12748 0.182799 -1.06728
rclavicle -6.33626e-015 -1.19271e-015
rhumerus -34.6621 -6.88038 -77.441
rradius 20.4847
rwrist 9.84185
rhand -9.923 1.28449
rfingers 7.12502
rthumb 16.0578 -28.0701
lclavicle -6.33626e-015 -1.19271e-015
lhumerus -36.2848 0.411178 82.3223
lradius 43.0694
lwrist 1.59298
lhand -8.03184 -5.08267
lfingers 7.12502
lthumb 17.8782 24.1156
rfemur -3.55259 -1.66069 16.0263
rtibia 68.4385
rfoot 6.38993 -23.106
rtoes -2.90974
lfemur -32.8562 -2.46914 -17.9844
ltibia 44.2991
lfoot -6.21997 6.0643
ltoes -11.012
